<svg id="Capa_1" enable-background="new 0 0 505.129 505.129" height="512" viewBox="0 0 505.129 505.129" width="512" xmlns="http://www.w3.org/2000/svg"><g><g><path d="m497.5 281.049v43.81c0 20.87-15.73 38.07-35.98 40.37-1.53.18-3.08.27-4.65.27h-372.78c-22.43 0-40.63-18.2-40.63-40.64v-145.05c0-22.44 18.2-40.64 40.63-40.64h216.44c15.22 0 29.16 8.51 36.14 22.04l40.79 79.2h79.41c1.57 0 3.12.09 4.65.27 20.25 2.3 35.98 19.5 35.98 40.37z" fill="#d7d0d6"/><path d="m153.9 139.169h30.57v226.33h-30.57z" fill="#baafb9"/><path d="m497.5 281.049v43.81c0 20.87-15.73 38.07-35.98 40.37v-124.55c20.25 2.3 35.98 19.5 35.98 40.37z" fill="#baafb9"/><path d="m184.47 185.509v34.02c0 7.17-5.82 12.98-12.99 12.98h-84.39c-7.17 0-12.99-5.81-12.99-12.98v-34.02c0-7.17 5.82-12.99 12.99-12.99h84.39c7.17 0 12.99 5.82 12.99 12.99z" fill="#eaf6ff"/><path d="m184.47 185.509v34.02c0 7.17-5.82 12.98-12.99 12.98h-17.58v-59.99h17.58c7.17 0 12.99 5.82 12.99 12.99z" fill="#c8effe"/><path d="m342.4 233.809c-12.61 0-23.13 3.23-31.75 7.93-22.87 12.45-32.42 35.19-32.42 35.19h-48.43c-7.7 0-13.94-6.24-13.94-13.94v-77.7c0-7.7 6.24-13.93 13.94-13.94h73.28c5.32 0 10.18 3.03 12.52 7.8z" fill="#eaf6ff"/><path d="m342.4 233.809c-12.61 0-23.13 3.23-31.75 7.93l-33.12-70.39h25.55c5.32 0 10.18 3.03 12.52 7.8z" fill="#c8effe"/><path d="m258.272 365.497h-162.466l14.419-66.59h133.628z" fill="#5f99d7"/><circle cx="176.613" cy="374.869" fill="#596c76" r="46.537"/><path d="m7.5 184.495h35.956v94.515h-35.956z" fill="#596c76"/><path d="m106.186 83.853h141.706v55.32h-141.706z" fill="#d8aa5e"/><path d="m106.186 83.853h109.677v55.32h-109.677z" fill="#e9b665"/><path d="m497.5 298.909v25.95c0 20.87-15.73 38.07-35.98 40.37-1.53.18-3.08.27-4.65.27h-121.47l14.42-66.59z" fill="#5f99d7"/><path d="m497.5 298.909v25.95c0 20.87-15.73 38.07-35.98 40.37v-66.32z" fill="#3c87d0"/><circle cx="414.986" cy="374.869" fill="#596c76" r="46.537"/></g><g><path d="m503.872 270.721c.137-1.94.187-2.747-1.709-5.943-6.686-18.562-24.465-31.871-45.298-31.871h-74.833l-38.697-75.134c-8.298-16.102-24.7-26.104-42.804-26.104h-45.139v-47.816c0-4.142-3.358-7.5-7.5-7.5h-141.706c-4.142 0-7.5 3.358-7.5 7.5v47.816h-14.593c-25.595 0-46.581 20.087-48.046 45.327h-28.547c-4.142 0-7.5 3.358-7.5 7.5v94.515c0 4.142 3.358 7.5 7.5 7.5h35.929c.01 0 .019.001.029.001 4.142 0 7.5-3.358 7.5-7.5v-99.198c0-18.276 14.864-33.145 33.135-33.145l92.944.004v19.135c-1.77-.5-3.63-.787-5.558-.787h-84.39c-11.297 0-20.488 9.191-20.488 20.488v34.016c0 11.297 9.191 20.488 20.488 20.488h84.39c1.928 0 3.787-.286 5.558-.787v52.181h-66.812c-3.53 0-6.583 2.462-7.33 5.913l-13.139 60.677h-5.663c-18.271 0-33.135-14.864-33.135-33.135v-10.408c0-4.142-3.358-7.5-7.5-7.5s-7.5 3.358-7.5 7.5v10.408c0 26.542 21.593 48.135 48.135 48.135h38.531c-.021.622-.047 1.244-.047 1.871 0 15.27 6.377 29.071 16.595 38.908h-30.607c-4.142 0-7.5 3.358-7.5 7.5s3.358 7.5 7.5 7.5h388.563c4.142 0 7.5-3.358 7.5-7.5s-3.358-7.5-7.5-7.5h-44.7c10.218-9.837 16.595-23.637 16.595-38.908 0-1.139-.047-2.267-.117-3.388 21.035-5.334 36.094-24.175 36.094-46.617 0 0 .691-46.104-1.128-54.142zm-467.915.789h-20.957v-79.515h20.957zm141.01-51.984c0 3.026-2.462 5.488-5.488 5.488h-84.39c-3.026 0-5.488-2.462-5.488-5.488v-34.016c0-3.026 2.462-5.488 5.488-5.488h84.39c3.026 0 5.488 2.462 5.488 5.488zm63.425-87.857h-84.412v-40.316h84.412zm-126.706-40.316h27.294v40.316h-27.294zm-8.582 266.644 11.171-51.59h121.528l11.171 51.59h-21.035c-7.104-21.557-27.42-37.166-51.326-37.166-23.905 0-44.221 15.609-51.325 37.166zm32.473 16.871c0-2.678.272-5.294.788-7.823.005-.024.01-.048.015-.072 3.661-17.753 19.413-31.142 38.233-31.142 21.525 0 39.037 17.512 39.037 39.037 0 20.503-15.891 37.352-36.002 38.908h-6.07c-20.11-1.555-36.001-18.405-36.001-38.908zm76.478 38.908c10.218-9.837 16.595-23.637 16.595-38.908 0-.628-.026-1.249-.047-1.871h130.394c-.021.622-.047 1.244-.047 1.871 0 15.27 6.377 29.071 16.595 38.908zm203.966 0h-6.07c-20.111-1.555-36.002-18.405-36.002-38.908 0-2.672.271-5.281.785-7.804.008-.037.015-.073.023-.11 3.668-17.744 19.415-31.123 38.229-31.123 21.525 0 39.037 17.512 39.037 39.037 0 20.503-15.892 37.353-36.002 38.908zm71.979-88.913c0 15.19-10.014 27.987-24.107 31.901-7.462-20.917-27.46-35.932-50.907-35.932-23.905 0-44.221 15.609-51.325 37.166h-18.965l11.171-51.59h9.848c4.142 0 7.5-3.358 7.5-7.5s-3.358-7.5-7.5-7.5h-15.897c-3.53 0-6.583 2.462-7.33 5.913l-13.139 60.677h-65.026l-13.139-60.677c-.747-3.45-3.8-5.913-7.33-5.913h-51.815v-144.735l108.494-.004c12.463 0 23.756 6.888 29.47 17.975l40.791 79.198c1.286 2.497 3.859 4.066 6.667 4.066h79.406c11.246 0 21.196 5.638 27.188 14.233h-22.531c-4.142 0-7.5 3.358-7.5 7.5s3.358 7.5 7.5 7.5h28.238c.152 1.284.239 14.268.239 14.268h-88.866c-4.142 0-7.5 3.358-7.5 7.5s3.358 7.5 7.5 7.5h88.865z"/><path d="m322.331 175.849c-3.574-7.291-11.13-12.001-19.25-12.001l-73.283.005c-11.82.001-21.436 9.618-21.436 21.438v77.699c0 11.82 9.617 21.437 21.438 21.437h48.427c3.004 0 5.727-1.813 6.907-4.576.671-1.574 16.914-38.542 57.262-38.542 2.589 0 4.995-1.335 6.364-3.532s1.51-4.945.37-7.27zm-48.768 93.578h-43.763c-3.55 0-6.438-2.888-6.438-6.437v-77.699c0-3.549 2.888-6.438 6.437-6.438l73.282-.005c2.438 0 4.708 1.415 5.781 3.604l21.918 44.704c-33.911 5.056-51.381 31.432-57.217 42.271z"/><ellipse cx="416.449" cy="373.939" rx="8.442" ry="8.442" transform="matrix(.973 -.23 .23 .973 -74.773 105.683)"/><ellipse cx="176.613" cy="373.939" rx="8.442" ry="8.442" transform="matrix(.707 -.707 .707 .707 -212.686 234.409)"/><path d="m73.802 413.776h-44.423c-4.142 0-7.5 3.358-7.5 7.5s3.358 7.5 7.5 7.5h44.423c4.142 0 7.5-3.358 7.5-7.5s-3.358-7.5-7.5-7.5z"/></g></g></svg>