<svg height="512" viewBox="0 0 64 64" width="512" xmlns="http://www.w3.org/2000/svg"><g id="Icons"><g><g><path d="m35.172 6h-2.023c-.913-1.208-2.347-2-3.977-2-2.761 0-5 2.239-5 5v5c0 1.105.895 2 2 2h6c1.105 0 2-.895 2-2v-5c0-.343-.035-.677-.101-1h1.101c.552 0 1-.448 1-1s-.448-1-1-1z" fill="#00a0c8"/></g><g><path d="m24.172 9h10v2h-10z" fill="#0a5078"/></g><g><path d="m34.071 8h-3.9c-1.105 0-2 .895-2 2 0 1.105.895 2 2 2h4v-3c.001-.342-.034-.677-.1-1z" fill="#c80a50"/></g><g><path d="m59 60h-54c-.552 0-1-.448-1-1v-2c0-.552.448-1 1-1h54c.552 0 1 .448 1 1v2c0 .552-.448 1-1 1z" fill="#fab400"/></g><g><g><path d="m54 33c-.256 0-.512-.098-.707-.293l-.828-.828c-.567-.566-1.32-.879-2.122-.879h-10.343c-.553 0-1-.447-1-1s.447-1 1-1h10.343c1.336 0 2.592.521 3.536 1.465l.828.828c.391.391.391 1.023 0 1.414-.195.195-.451.293-.707.293z" fill="#0a5078"/></g><g><path d="m43.118 29h-2.236l1 2h2.236z" fill="#00325a"/></g><g><path d="m34 46h-4c-.553 0-1-.447-1-1s.447-1 1-1h4c1.103 0 2-.897 2-2v-5c0-.553.447-1 1-1s1 .447 1 1v5c0 2.206-1.794 4-4 4z" fill="#c80a50"/></g><g><path d="m15 34c-6.075 0-11 4.925-11 11s4.925 11 11 11 11-4.925 11-11-4.925-11-11-11zm0 19c-4.418 0-8-3.582-8-8s3.582-8 8-8 8 3.582 8 8-3.582 8-8 8z" fill="#0a5078"/></g><g><path d="m15.522 34.013c-.18.825.178 1.706.946 2.155l7.778 4.537c.304 1.026.875 1.938 1.632 2.655-.767-5.13-5.075-9.101-10.356-9.347z" fill="#00325a"/></g><g><circle cx="15" cy="45" fill="#00a0c8" r="4"/></g><g><path d="m15.002 47c-.694 0-1.369-.361-1.738-1.008-.548-.959-.215-2.181.744-2.729l14-8c.959-.548 2.181-.215 2.729.744s.215 2.181-.744 2.729l-14 8c-.313.179-.655.264-.991.264z" fill="#fab400"/></g><g><path d="m28.008 35.264-6.612 3.778 2.85 1.663c.11.372.256.73.432 1.068l5.314-3.036c.959-.548 1.292-1.77.744-2.729s-1.768-1.293-2.728-.744z" fill="#dc9600"/></g><g><path d="m5 33c-.256 0-.512-.098-.707-.293-.391-.391-.391-1.023 0-1.414l1.535-1.535c1.134-1.134 2.641-1.758 4.243-1.758h7.929c.553 0 1 .447 1 1s-.447 1-1 1h-7.929c-1.068 0-2.073.416-2.829 1.172l-1.535 1.535c-.195.195-.451.293-.707.293z" fill="#00a0c8"/></g><g><path d="m18 30c.552 0 1-.448 1-1s-.448-1-1-1h-5l3.333 2z" fill="#0082aa"/></g><g><path d="m26.74 41.16-10.272-5.992c-.954-.557-1.276-1.781-.72-2.735l.504-.864c.557-.954 1.781-1.276 2.735-.72l10.273 5.991z" fill="#00a0c8"/></g><g><path d="m24.776 34.224-5.788-3.376c-.625-.365-1.366-.352-1.96-.032l5.972 3.584v4.578l2 1.167v-5.789z" fill="#0082aa"/></g><g><path d="m30 44h4c1.105 0 2-.895 2-2v-8h-12v4c0 3.314 2.686 6 6 6z" fill="#0a5078"/></g><path d="m31 42h-5.472c1.099 1.227 2.695 2 4.472 2h3c0-1.105-.895-2-2-2z" fill="#00325a"/><g><path d="m36 34v5h-3.17c-.53 0-1.04-.21-1.42-.59l-2.82-2.82c-.38-.38-.89-.59-1.42-.59h-3.17v-1z" fill="#00325a"/></g><g><path d="m38 37v1c0 .55-.45 1-1 1h-1v-2c0-.55.45-1 1-1s1 .45 1 1z" fill="#a00028"/></g><g><path d="m40 27 3 6h-3c-1.105 0-2 .895-2 2v2c0 .552-.448 1-1 1h-4.172c-.53 0-1.039-.211-1.414-.586l-2.828-2.828c-.375-.375-.884-.586-1.414-.586h-3.172l6.121-6.121c.563-.563 1.326-.879 2.122-.879z" fill="#fab400"/></g><g><path d="m38 27c0 .155.036.309.105.447l2.777 5.553h2.118l-3-6z" fill="#dc9600"/></g><g><path d="m49 34c-6.075 0-11 4.925-11 11s4.925 11 11 11 11-4.925 11-11-4.925-11-11-11zm0 19c-4.418 0-8-3.582-8-8s3.582-8 8-8 8 3.582 8 8-3.582 8-8 8z" fill="#0a5078"/></g><g><path d="m45.516 37.797-1.342-2.684c-.605.296-1.179.645-1.715 1.043l1.37 2.74c.512-.434 1.078-.804 1.687-1.099z" fill="#00325a"/></g><g><circle cx="49" cy="45" fill="#00a0c8" r="4"/></g><g><path d="m48.895 44.553-1.589-3.177c-.633.297-1.176.754-1.576 1.32l1.376 2.751c.175.351.528.553.895.553.15 0 .303-.034.446-.105.494-.248.695-.848.448-1.342z" fill="#0082aa"/></g><g><path d="m49.001 46c-.367 0-.72-.202-.896-.553l-9-18c-.069-.138-.105-.292-.105-.447v-4h-3c-.553 0-1-.447-1-1s.447-1 1-1h3c1.103 0 2 .897 2 2v3.764l8.895 17.789c.247.494.047 1.095-.447 1.342-.144.071-.297.105-.447.105z" fill="#c80a50"/></g><g><path d="m24 34-10-6h16z" fill="#0a5078"/></g><g><path d="m29 28-5.625 5.625.625.375 6-6z" fill="#00325a"/></g><g><circle cx="36" cy="22" fill="#00a0c8" r="2"/></g><g><circle cx="36" cy="22" fill="#0082aa" r="1"/></g></g><g><path d="m31 32v5l-2.41-2.41c-.38-.38-.89-.59-1.42-.59h-3l-.08-.08 4.82-4.83 1.5 1.5c.38.37.59.88.59 1.41z" fill="#dc9600"/></g><g><path d="m31 37v5c0 .98-.71 1.79-1.64 1.97-1.82-.2-3.4-1.21-4.36-2.66v-6.48l-.83-.83h3c.53 0 1.04.21 1.42.59z" fill="#00325a"/></g><path d="m24 42h6v-10c0-.53-.211-1.039-.586-1.414l-6.586-6.586.586-.586c.781-.781.781-2.047 0-2.828l-3-3c-.781-.781-2.047-.781-2.828 0l-2.586 2.586c-1.56 1.56-1.56 4.097 0 5.656l9 9z" fill="#c80a50"/><path d="m27.707 14.879-1.586-1.586c-1.17-1.17-3.072-1.17-4.242 0l-6.707 6.707 3.707 3.707c.585.585 1.353.877 2.121.877s1.536-.292 2.121-.877l4.586-4.586c1.17-1.17 1.17-3.072 0-4.242z" fill="#fab400"/><g><path d="m35 24h-7c-.669 0-1.293-.334-1.664-.891l-4-6c-.612-.919-.364-2.161.555-2.773.919-.614 2.16-.364 2.773.555l3.406 5.109h5.93c1.104 0 2 .896 2 2s-.896 2-2 2z" fill="#dc9600"/></g><g><path d="m33 45v-1h-3c-.553 0-1 .447-1 1s.447 1 1 1h2c.552 0 1-.448 1-1z" fill="#a00028"/></g><g><path d="m31 46h-6c-.552 0-1-.448-1-1v-3h6c1.105 0 2 .895 2 2v1c0 .552-.448 1-1 1z" fill="#00a0c8"/></g><g><path d="m36 24h-1v-4h1c1.105 0 2 .895 2 2 0 1.105-.895 2-2 2z" fill="#f0c8a0"/></g><g><path d="m30 48h-2c-.552 0-1-.448-1-1v-1h4v1c0 .552-.448 1-1 1z" fill="#fab400"/></g></g></g></svg>